<?xml version="1.0" encoding="UTF-8"?>
<!DOCTYPE svg PUBLIC "-//W3C//DTD SVG 1.1//EN" "http://www.w3.org/Graphics/SVG/1.1/DTD/svg11.dtd">
<svg xmlns="http://www.w3.org/2000/svg" version="1.1" width="700px" height="700px" style="shape-rendering:geometricPrecision; text-rendering:geometricPrecision; image-rendering:optimizeQuality; fill-rule:evenodd; clip-rule:evenodd" xmlns:xlink="http://www.w3.org/1999/xlink">
<g><path style="opacity:0.955" fill="#fefffe" d="M 99.5,106.5 C 104.835,106.654 110.002,106.654 115,106.5C 122.895,109.874 130.561,113.541 138,117.5C 138.561,116.978 139.228,116.645 140,116.5C 142.874,118.46 145.874,120.127 149,121.5C 149.333,121.167 149.667,120.833 150,120.5C 158.739,124.351 167.406,128.351 176,132.5C 176.561,131.978 177.228,131.645 178,131.5C 183.099,133.966 188.265,136.299 193.5,138.5C 197.162,141.821 199.829,145.821 201.5,150.5C 204.699,160.645 208.199,170.645 212,180.5C 213.154,184.447 213.987,188.447 214.5,192.5C 342.834,192.333 471.167,192.5 599.5,193C 602.312,194.977 604.978,197.144 607.5,199.5C 608.833,206.167 608.833,212.833 607.5,219.5C 585.093,285.454 563.759,351.788 543.5,418.5C 541.735,425.655 538.735,432.155 534.5,438C 531.126,440.125 527.46,441.458 523.5,442C 439.8,442.653 356.134,442.653 272.5,442C 271.853,443.609 271.02,445.109 270,446.5C 265.828,458.842 261.661,471.175 257.5,483.5C 347.167,483.333 436.834,483.5 526.5,484C 532.505,486.338 536.172,490.671 537.5,497C 536.969,501.229 535.636,505.062 533.5,508.5C 531.897,508.312 530.563,508.812 529.5,510C 522.144,510.169 514.811,510.669 507.5,511.5C 518.795,524.002 522.628,538.669 519,555.5C 512.312,580.234 496.146,592.901 470.5,593.5C 448.469,593.403 432.802,583.403 423.5,563.5C 421.997,556.162 420.83,548.829 420,541.5C 421.286,536.44 422.453,531.274 423.5,526C 425.938,520.357 428.938,515.19 432.5,510.5C 396.494,510.167 360.494,510.5 324.5,511.5C 336.224,525.443 339.724,541.443 335,559.5C 328.991,576.175 317.658,587.509 301,593.5C 291.645,593.752 282.145,593.418 272.5,592.5C 250.416,584.745 238.416,568.579 236.5,544C 236.799,539.771 237.466,535.604 238.5,531.5C 241.62,524.264 244.954,517.264 248.5,510.5C 242.286,510.772 236.119,510.438 230,509.5C 225.399,506.622 222.899,502.456 222.5,497C 231.396,472.251 240.063,447.418 248.5,422.5C 250.843,418.829 253.843,415.829 257.5,413.5C 251.18,399.766 246.18,385.433 242.5,370.5C 237.295,356.772 232.128,343.106 227,329.5C 208.765,274.22 189.765,219.22 170,164.5C 169.586,164.957 169.086,165.291 168.5,165.5C 155.808,159.74 143.141,154.74 130.5,150.5C 121.13,146.773 111.963,142.773 103,138.5C 102.667,138.833 102.333,139.167 102,139.5C 91.1968,134.128 87.6968,125.461 91.5,113.5C 93.9704,110.831 96.637,108.497 99.5,106.5 Z M 227.5,225.5 C 261.5,225.5 295.5,225.5 329.5,225.5C 329.5,237.5 329.5,249.5 329.5,261.5C 299.493,261.833 269.493,261.5 239.5,260.5C 235.446,248.806 231.446,237.14 227.5,225.5 Z M 362.5,225.5 C 387.833,225.5 413.167,225.5 438.5,225.5C 438.5,237.5 438.5,249.5 438.5,261.5C 413.167,261.5 387.833,261.5 362.5,261.5C 362.5,249.5 362.5,237.5 362.5,225.5 Z M 473.5,225.5 C 505.167,225.5 536.833,225.5 568.5,225.5C 568.154,228.885 567.488,232.218 566.5,235.5C 563.127,243.702 560.127,252.035 557.5,260.5C 529.508,261.5 501.508,261.833 473.5,261.5C 473.5,249.5 473.5,237.5 473.5,225.5 Z M 251.5,296.5 C 277.5,296.5 303.5,296.5 329.5,296.5C 329.5,310.5 329.5,324.5 329.5,338.5C 308.497,338.667 287.497,338.5 266.5,338C 261.32,324.159 256.32,310.325 251.5,296.5 Z M 362.5,296.5 C 387.833,296.5 413.167,296.5 438.5,296.5C 438.5,310.5 438.5,324.5 438.5,338.5C 413.167,338.5 387.833,338.5 362.5,338.5C 362.5,324.5 362.5,310.5 362.5,296.5 Z M 473.5,296.5 C 497.836,296.333 522.169,296.5 546.5,297C 542.404,310.906 538.071,324.739 533.5,338.5C 513.5,338.5 493.5,338.5 473.5,338.5C 473.5,324.5 473.5,310.5 473.5,296.5 Z M 278.5,373.5 C 295.325,372.503 312.325,372.17 329.5,372.5C 329.5,384.5 329.5,396.5 329.5,408.5C 316.5,408.5 303.5,408.5 290.5,408.5C 286.329,396.777 282.329,385.11 278.5,373.5 Z M 362.5,372.5 C 387.833,372.5 413.167,372.5 438.5,372.5C 438.5,384.5 438.5,396.5 438.5,408.5C 413.167,408.5 387.833,408.5 362.5,408.5C 362.5,396.5 362.5,384.5 362.5,372.5 Z M 473.5,372.5 C 489.847,372.167 506.18,372.501 522.5,373.5C 521.585,374.328 520.919,375.328 520.5,376.5C 517.486,387.231 514.486,397.898 511.5,408.5C 498.833,408.5 486.167,408.5 473.5,408.5C 473.5,396.5 473.5,384.5 473.5,372.5 Z M 280.5,523.5 C 296.947,521.001 306.614,527.834 309.5,544C 308.539,552.926 304.372,559.759 297,564.5C 283.735,569.62 273.568,565.787 266.5,553C 262.349,538.532 267.015,528.699 280.5,523.5 Z M 463.5,523.5 C 483.406,521.742 492.74,530.742 491.5,550.5C 487.899,560.834 480.899,566.167 470.5,566.5C 454.389,564.693 447.222,555.359 449,538.5C 451.721,531.282 456.554,526.282 463.5,523.5 Z"/></g>
</svg>
